<svg class="main-svg" xmlns="http://www.w3.org/2000/svg" xmlns:xlink="http://www.w3.org/1999/xlink" width="700" height="500" style="" viewBox="0 0 700 500"><rect x="0" y="0" width="700" height="500" style="fill: rgb(255, 255, 255); fill-opacity: 1;"/><defs id="defs-d7ffb5"><g class="clips"><clipPath id="clipd7ffb5polar-for-traces"><path d="M160,0A160,160 0,1,0 -160,-1.9594348786357652e-14A160,160 0,1,0 160,3.9188697572715304e-14Z" transform="translate(160,160)"/></clipPath></g><g class="gradients"/><g class="patterns"/></defs><g class="bglayer"/><g class="layer-below"><g class="imagelayer"/><g class="shapelayer"/></g><g class="cartesianlayer"/><g class="polarlayer"><g class="polar"><g class="polarsublayer draglayer"/><g class="polarsublayer plotbg"><path d="M160,0A160,160 0,1,0 -160,-1.9594348786357652e-14A160,160 0,1,0 160,3.9188697572715304e-14Z" transform="translate(302,260)" style="fill: rgb(229, 236, 246); fill-opacity: 1;"/></g><g class="polarsublayer backplot"><g class="maplayer"/></g><g class="polarsublayer angular-grid" style="fill: none;"><path class="angularaxisgrid" d="M302,260L302,100" style="stroke: rgb(255, 255, 255); stroke-opacity: 1; stroke-width: 1px;"/><path class="angularaxisgrid" d="M302,260L427.0930371948848,160.24163170260266" style="stroke: rgb(255, 255, 255); stroke-opacity: 1; stroke-width: 1px;"/><path class="angularaxisgrid" d="M302,260L457.9884659490918,295.6033494330103" style="stroke: rgb(255, 255, 255); stroke-opacity: 1; stroke-width: 1px;"/><path class="angularaxisgrid" d="M302,260L371.4213982588093,404.1550188643871" style="stroke: rgb(255, 255, 255); stroke-opacity: 1; stroke-width: 1px;"/><path class="angularaxisgrid" d="M302,260L232.5786017411907,404.1550188643871" style="stroke: rgb(255, 255, 255); stroke-opacity: 1; stroke-width: 1px;"/><path class="angularaxisgrid" d="M302,260L146.0115340509082,295.6033494330103" style="stroke: rgb(255, 255, 255); stroke-opacity: 1; stroke-width: 1px;"/><path class="angularaxisgrid" d="M302,260L176.9069628051152,160.24163170260266" style="stroke: rgb(255, 255, 255); stroke-opacity: 1; stroke-width: 1px;"/></g><g class="polarsublayer radial-grid" transform="translate(302,260)" style="fill: none;"><path class="xgrid" d="M32,0A32,32 0,1,0 -32,-3.91886975727153e-15A32,32 0,1,0 32,7.83773951454306e-15Z" style="stroke: rgb(255, 255, 255); stroke-opacity: 1; stroke-width: 1px;"/><path class="xgrid" d="M64,0A64,64 0,1,0 -64,-7.83773951454306e-15A64,64 0,1,0 64,1.567547902908612e-14Z" style="stroke: rgb(255, 255, 255); stroke-opacity: 1; stroke-width: 1px;"/><path class="xgrid" d="M96,0A96,96 0,1,0 -96,-1.175660927181459e-14A96,96 0,1,0 96,2.351321854362918e-14Z" style="stroke: rgb(255, 255, 255); stroke-opacity: 1; stroke-width: 1px;"/><path class="xgrid" d="M128,0A128,128 0,1,0 -128,-1.567547902908612e-14A128,128 0,1,0 128,3.135095805817224e-14Z" style="stroke: rgb(255, 255, 255); stroke-opacity: 1; stroke-width: 1px;"/></g><g class="polarsublayer frontplot" transform="translate(142,100)"><g class="barlayer"/><g class="scatterlayer"><g class="trace scatter tracec17c4e" style="stroke-miterlimit: 2; opacity: 1;"><g class="fills" clip-path="url(#clipd7ffb5polar-for-traces)"><g><path class="js-fill" d="M160,32.99L285.09,60.24L267.34,184.5L215.67,275.6L97.73,289.31L50.81,184.92L39.03,63.53L160,32.99Z" style="fill: rgb(255, 141, 0); fill-opacity: 0.25; stroke-width: 0;"/></g></g><g class="errorbars"/><g class="lines"><path class="js-line" d="M160,32.99L285.09,60.24L267.34,184.5L215.67,275.6L97.73,289.31L50.81,184.92L39.03,63.53L160,32.99" clip-path="url(#clipd7ffb5polar-for-traces)" style="vector-effect: none; fill: none; stroke: rgb(255, 141, 0); stroke-opacity: 0.9; stroke-width: 1px; opacity: 1;"/></g><g class="points"><path class="point" transform="translate(160,32.99)" d="M4,0A4,4 0 1,1 0,-4A4,4 0 0,1 4,0Z" style="opacity: 1; stroke-width: 0px; fill: rgb(255, 141, 0); fill-opacity: 1;"/><path class="point" transform="translate(285.09,60.24)" d="M4,0A4,4 0 1,1 0,-4A4,4 0 0,1 4,0Z" style="opacity: 1; stroke-width: 0px; fill: rgb(255, 141, 0); fill-opacity: 1;"/><path class="point" transform="translate(267.34,184.5)" d="M4,0A4,4 0 1,1 0,-4A4,4 0 0,1 4,0Z" style="opacity: 1; stroke-width: 0px; fill: rgb(255, 141, 0); fill-opacity: 1;"/><path class="point" transform="translate(215.67,275.6)" d="M4,0A4,4 0 1,1 0,-4A4,4 0 0,1 4,0Z" style="opacity: 1; stroke-width: 0px; fill: rgb(255, 141, 0); fill-opacity: 1;"/><path class="point" transform="translate(97.73,289.31)" d="M4,0A4,4 0 1,1 0,-4A4,4 0 0,1 4,0Z" style="opacity: 1; stroke-width: 0px; fill: rgb(255, 141, 0); fill-opacity: 1;"/><path class="point" transform="translate(50.81,184.92)" d="M4,0A4,4 0 1,1 0,-4A4,4 0 0,1 4,0Z" style="opacity: 1; stroke-width: 0px; fill: rgb(255, 141, 0); fill-opacity: 1;"/><path class="point" transform="translate(39.03,63.53)" d="M4,0A4,4 0 1,1 0,-4A4,4 0 0,1 4,0Z" style="opacity: 1; stroke-width: 0px; fill: rgb(255, 141, 0); fill-opacity: 1;"/><path class="point" transform="translate(160,32.99)" d="M4,0A4,4 0 1,1 0,-4A4,4 0 0,1 4,0Z" style="opacity: 1; stroke-width: 0px; fill: rgb(255, 141, 0); fill-opacity: 1;"/></g><g class="text"/></g><g class="trace scatter traced5c1bf" style="stroke-miterlimit: 2; opacity: 1;"><g class="fills" clip-path="url(#clipd7ffb5polar-for-traces)"><g><path class="js-fill" d="M160,50.71L278.84,65.23L290.38,189.76L216.57,277.47L117.21,248.86L63.81,181.96L49.92,72.21L160,50.71Z" style="fill: rgb(27, 1, 92); fill-opacity: 0.25; stroke-width: 0;"/></g></g><g class="errorbars"/><g class="lines"><path class="js-line" d="M160,50.71L278.84,65.23L290.38,189.76L216.57,277.47L117.21,248.86L63.81,181.96L49.92,72.21L160,50.71" clip-path="url(#clipd7ffb5polar-for-traces)" style="vector-effect: none; fill: none; stroke: rgb(27, 1, 92); stroke-opacity: 0.9; stroke-width: 1px; opacity: 1;"/></g><g class="points"><path class="point" transform="translate(160,50.71)" d="M4,0A4,4 0 1,1 0,-4A4,4 0 0,1 4,0Z" style="opacity: 1; stroke-width: 0px; fill: rgb(27, 1, 92); fill-opacity: 1;"/><path class="point" transform="translate(278.84,65.23)" d="M4,0A4,4 0 1,1 0,-4A4,4 0 0,1 4,0Z" style="opacity: 1; stroke-width: 0px; fill: rgb(27, 1, 92); fill-opacity: 1;"/><path class="point" transform="translate(290.38,189.76)" d="M4,0A4,4 0 1,1 0,-4A4,4 0 0,1 4,0Z" style="opacity: 1; stroke-width: 0px; fill: rgb(27, 1, 92); fill-opacity: 1;"/><path class="point" transform="translate(216.57,277.47)" d="M4,0A4,4 0 1,1 0,-4A4,4 0 0,1 4,0Z" style="opacity: 1; stroke-width: 0px; fill: rgb(27, 1, 92); fill-opacity: 1;"/><path class="point" transform="translate(117.21,248.86)" d="M4,0A4,4 0 1,1 0,-4A4,4 0 0,1 4,0Z" style="opacity: 1; stroke-width: 0px; fill: rgb(27, 1, 92); fill-opacity: 1;"/><path class="point" transform="translate(63.81,181.96)" d="M4,0A4,4 0 1,1 0,-4A4,4 0 0,1 4,0Z" style="opacity: 1; stroke-width: 0px; fill: rgb(27, 1, 92); fill-opacity: 1;"/><path class="point" transform="translate(49.92,72.21)" d="M4,0A4,4 0 1,1 0,-4A4,4 0 0,1 4,0Z" style="opacity: 1; stroke-width: 0px; fill: rgb(27, 1, 92); fill-opacity: 1;"/><path class="point" transform="translate(160,50.71)" d="M4,0A4,4 0 1,1 0,-4A4,4 0 0,1 4,0Z" style="opacity: 1; stroke-width: 0px; fill: rgb(27, 1, 92); fill-opacity: 1;"/></g><g class="text"/></g><g class="trace scatter trace056500" style="stroke-miterlimit: 2; opacity: 1;"><g class="fills" clip-path="url(#clipd7ffb5polar-for-traces)"><g><path class="js-fill" d="M160,68.14L285.09,60.24L267.17,184.46L216.89,278.13L114.71,254.04L122.16,168.64L49.36,71.77L160,68.14Z" style="fill: rgb(255, 0, 167); fill-opacity: 0.25; stroke-width: 0;"/></g></g><g class="errorbars"/><g class="lines"><path class="js-line" d="M160,68.14L285.09,60.24L267.17,184.46L216.89,278.13L114.71,254.04L122.16,168.64L49.36,71.77L160,68.14" clip-path="url(#clipd7ffb5polar-for-traces)" style="vector-effect: none; fill: none; stroke: rgb(255, 0, 167); stroke-opacity: 0.9; stroke-width: 1px; opacity: 1;"/></g><g class="points"><path class="point" transform="translate(160,68.14)" d="M4,0A4,4 0 1,1 0,-4A4,4 0 0,1 4,0Z" style="opacity: 1; stroke-width: 0px; fill: rgb(255, 0, 167); fill-opacity: 1;"/><path class="point" transform="translate(285.09,60.24)" d="M4,0A4,4 0 1,1 0,-4A4,4 0 0,1 4,0Z" style="opacity: 1; stroke-width: 0px; fill: rgb(255, 0, 167); fill-opacity: 1;"/><path class="point" transform="translate(267.17,184.46)" d="M4,0A4,4 0 1,1 0,-4A4,4 0 0,1 4,0Z" style="opacity: 1; stroke-width: 0px; fill: rgb(255, 0, 167); fill-opacity: 1;"/><path class="point" transform="translate(216.89,278.13)" d="M4,0A4,4 0 1,1 0,-4A4,4 0 0,1 4,0Z" style="opacity: 1; stroke-width: 0px; fill: rgb(255, 0, 167); fill-opacity: 1;"/><path class="point" transform="translate(114.71,254.04)" d="M4,0A4,4 0 1,1 0,-4A4,4 0 0,1 4,0Z" style="opacity: 1; stroke-width: 0px; fill: rgb(255, 0, 167); fill-opacity: 1;"/><path class="point" transform="translate(122.16,168.64)" d="M4,0A4,4 0 1,1 0,-4A4,4 0 0,1 4,0Z" style="opacity: 1; stroke-width: 0px; fill: rgb(255, 0, 167); fill-opacity: 1;"/><path class="point" transform="translate(49.36,71.77)" d="M4,0A4,4 0 1,1 0,-4A4,4 0 0,1 4,0Z" style="opacity: 1; stroke-width: 0px; fill: rgb(255, 0, 167); fill-opacity: 1;"/><path class="point" transform="translate(160,68.14)" d="M4,0A4,4 0 1,1 0,-4A4,4 0 0,1 4,0Z" style="opacity: 1; stroke-width: 0px; fill: rgb(255, 0, 167); fill-opacity: 1;"/></g><g class="text"/></g><g class="trace scatter trace3869c7" style="stroke-miterlimit: 2; opacity: 1;"><g class="fills" clip-path="url(#clipd7ffb5polar-for-traces)"><g><path class="js-fill" d="M160,111.37L285.09,60.24L281.26,187.68L216.27,276.84L144.43,192.33L145.2,163.38L66.53,85.46L160,111.37Z" style="fill: rgb(32, 205, 255); fill-opacity: 0.25; stroke-width: 0;"/></g></g><g class="errorbars"/><g class="lines"><path class="js-line" d="M160,111.37L285.09,60.24L281.26,187.68L216.27,276.84L144.43,192.33L145.2,163.38L66.53,85.46L160,111.37" clip-path="url(#clipd7ffb5polar-for-traces)" style="vector-effect: none; fill: none; stroke: rgb(32, 205, 255); stroke-opacity: 0.9; stroke-width: 1px; opacity: 1;"/></g><g class="points"><path class="point" transform="translate(160,111.37)" d="M4,0A4,4 0 1,1 0,-4A4,4 0 0,1 4,0Z" style="opacity: 1; stroke-width: 0px; fill: rgb(32, 205, 255); fill-opacity: 1;"/><path class="point" transform="translate(285.09,60.24)" d="M4,0A4,4 0 1,1 0,-4A4,4 0 0,1 4,0Z" style="opacity: 1; stroke-width: 0px; fill: rgb(32, 205, 255); fill-opacity: 1;"/><path class="point" transform="translate(281.26,187.68)" d="M4,0A4,4 0 1,1 0,-4A4,4 0 0,1 4,0Z" style="opacity: 1; stroke-width: 0px; fill: rgb(32, 205, 255); fill-opacity: 1;"/><path class="point" transform="translate(216.27,276.84)" d="M4,0A4,4 0 1,1 0,-4A4,4 0 0,1 4,0Z" style="opacity: 1; stroke-width: 0px; fill: rgb(32, 205, 255); fill-opacity: 1;"/><path class="point" transform="translate(144.43,192.33)" d="M4,0A4,4 0 1,1 0,-4A4,4 0 0,1 4,0Z" style="opacity: 1; stroke-width: 0px; fill: rgb(32, 205, 255); fill-opacity: 1;"/><path class="point" transform="translate(145.2,163.38)" d="M4,0A4,4 0 1,1 0,-4A4,4 0 0,1 4,0Z" style="opacity: 1; stroke-width: 0px; fill: rgb(32, 205, 255); fill-opacity: 1;"/><path class="point" transform="translate(66.53,85.46)" d="M4,0A4,4 0 1,1 0,-4A4,4 0 0,1 4,0Z" style="opacity: 1; stroke-width: 0px; fill: rgb(32, 205, 255); fill-opacity: 1;"/><path class="point" transform="translate(160,111.37)" d="M4,0A4,4 0 1,1 0,-4A4,4 0 0,1 4,0Z" style="opacity: 1; stroke-width: 0px; fill: rgb(32, 205, 255); fill-opacity: 1;"/></g><g class="text"/></g><g class="trace scatter trace8e8482" style="stroke-miterlimit: 2; opacity: 1;"><g class="fills" clip-path="url(#clipd7ffb5polar-for-traces)"><g><path class="js-fill" d="M160,51.04L285.09,60.24L274.43,186.12L215.52,275.28L134.44,213.07L102.84,173.05L58.35,78.94L160,51.04Z" style="fill: rgb(33, 255, 37); fill-opacity: 0.25; stroke-width: 0;"/></g></g><g class="errorbars"/><g class="lines"><path class="js-line" d="M160,51.04L285.09,60.24L274.43,186.12L215.52,275.28L134.44,213.07L102.84,173.05L58.35,78.94L160,51.04" clip-path="url(#clipd7ffb5polar-for-traces)" style="vector-effect: none; fill: none; stroke: rgb(33, 255, 37); stroke-opacity: 0.9; stroke-width: 1px; opacity: 1;"/></g><g class="points"><path class="point" transform="translate(160,51.04)" d="M4,0A4,4 0 1,1 0,-4A4,4 0 0,1 4,0Z" style="opacity: 1; stroke-width: 0px; fill: rgb(33, 255, 37); fill-opacity: 1;"/><path class="point" transform="translate(285.09,60.24)" d="M4,0A4,4 0 1,1 0,-4A4,4 0 0,1 4,0Z" style="opacity: 1; stroke-width: 0px; fill: rgb(33, 255, 37); fill-opacity: 1;"/><path class="point" transform="translate(274.43,186.12)" d="M4,0A4,4 0 1,1 0,-4A4,4 0 0,1 4,0Z" style="opacity: 1; stroke-width: 0px; fill: rgb(33, 255, 37); fill-opacity: 1;"/><path class="point" transform="translate(215.52,275.28)" d="M4,0A4,4 0 1,1 0,-4A4,4 0 0,1 4,0Z" style="opacity: 1; stroke-width: 0px; fill: rgb(33, 255, 37); fill-opacity: 1;"/><path class="point" transform="translate(134.44,213.07)" d="M4,0A4,4 0 1,1 0,-4A4,4 0 0,1 4,0Z" style="opacity: 1; stroke-width: 0px; fill: rgb(33, 255, 37); fill-opacity: 1;"/><path class="point" transform="translate(102.84,173.05)" d="M4,0A4,4 0 1,1 0,-4A4,4 0 0,1 4,0Z" style="opacity: 1; stroke-width: 0px; fill: rgb(33, 255, 37); fill-opacity: 1;"/><path class="point" transform="translate(58.35,78.94)" d="M4,0A4,4 0 1,1 0,-4A4,4 0 0,1 4,0Z" style="opacity: 1; stroke-width: 0px; fill: rgb(33, 255, 37); fill-opacity: 1;"/><path class="point" transform="translate(160,51.04)" d="M4,0A4,4 0 1,1 0,-4A4,4 0 0,1 4,0Z" style="opacity: 1; stroke-width: 0px; fill: rgb(33, 255, 37); fill-opacity: 1;"/></g><g class="text"/></g></g></g><g class="polarsublayer angular-line"><path d="M160,0A160,160 0,1,0 -160,-1.9594348786357652e-14A160,160 0,1,0 160,3.9188697572715304e-14Z" transform="translate(302,260)" stroke-width="1" style="fill: none; stroke: rgb(255, 255, 255); stroke-opacity: 1;"/></g><g class="polarsublayer radial-line"><line x1="0" y1="0" x2="160" y2="0" transform="translate(302,260)" stroke-width="1" style="fill: none; stroke: rgb(255, 255, 255); stroke-opacity: 1;"/></g><g class="polarsublayer angular-axis"><g class="angularaxistick"><text text-anchor="middle" x="1.5308084989341916e-16" y="-4.5" transform="translate(302,100)" style="font-family: 'Open Sans', verdana, arial, sans-serif; font-size: 10px; fill: rgb(42, 63, 95); fill-opacity: 1; white-space: pre; opacity: 1;">LLM Context Precision Without Reference</text></g><g class="angularaxistick"><text text-anchor="start" x="1.9545787061700746" y="-0.06929391972619614" transform="translate(427.0930371948848,160.24163170260266)" style="font-family: 'Open Sans', verdana, arial, sans-serif; font-size: 10px; fill: rgb(42, 63, 95); fill-opacity: 1; white-space: pre; opacity: 1;">Context Recall</text></g><g class="angularaxistick"><text text-anchor="start" x="2.437319780454559" y="6.193759367090313" transform="translate(457.9884659490918,295.6033494330103)" style="font-family: 'Open Sans', verdana, arial, sans-serif; font-size: 10px; fill: rgb(42, 63, 95); fill-opacity: 1; white-space: pre; opacity: 1;">Answer Relevancy</text></g><g class="angularaxistick"><text text-anchor="start" x="1.0847093477938954" y="12.780703935691692" transform="translate(371.4213982588093,404.1550188643871)" style="font-family: 'Open Sans', verdana, arial, sans-serif; font-size: 10px; fill: rgb(42, 63, 95); fill-opacity: 1; white-space: pre; opacity: 1;">LLM Context Precision With Reference</text></g><g class="angularaxistick"><text text-anchor="end" x="-1.0847093477938952" y="12.780703935691692" transform="translate(232.5786017411907,404.1550188643871)" style="font-family: 'Open Sans', verdana, arial, sans-serif; font-size: 10px; fill: rgb(42, 63, 95); fill-opacity: 1; white-space: pre; opacity: 1;">Answer Correctness</text></g><g class="angularaxistick"><text text-anchor="end" x="-2.437319780454559" y="6.193759367090314" transform="translate(146.0115340509082,295.6033494330103)" style="font-family: 'Open Sans', verdana, arial, sans-serif; font-size: 10px; fill: rgb(42, 63, 95); fill-opacity: 1; white-space: pre; opacity: 1;">Faithfulness</text></g><g class="angularaxistick"><text text-anchor="end" x="-1.9545787061700748" y="-0.0692939197261957" transform="translate(176.9069628051152,160.24163170260266)" style="font-family: 'Open Sans', verdana, arial, sans-serif; font-size: 10px; fill: rgb(42, 63, 95); fill-opacity: 1; white-space: pre; opacity: 1;">Semantic Similarity</text></g></g><g class="polarsublayer radial-axis" transform="translate(302,260)"><g class="xtick"><text text-anchor="middle" x="0" y="12.5" transform="" style="font-family: 'Open Sans', verdana, arial, sans-serif; font-size: 10px; fill: rgb(42, 63, 95); fill-opacity: 1; white-space: pre; opacity: 1;">0</text></g><g class="xtick"><text text-anchor="middle" x="0" y="12.5" transform="translate(32,0)" style="font-family: 'Open Sans', verdana, arial, sans-serif; font-size: 10px; fill: rgb(42, 63, 95); fill-opacity: 1; white-space: pre; opacity: 1;">0.2</text></g><g class="xtick"><text text-anchor="middle" x="0" y="12.5" transform="translate(64,0)" style="font-family: 'Open Sans', verdana, arial, sans-serif; font-size: 10px; fill: rgb(42, 63, 95); fill-opacity: 1; white-space: pre; opacity: 1;">0.4</text></g><g class="xtick"><text text-anchor="middle" x="0" y="12.5" transform="translate(96,0)" style="font-family: 'Open Sans', verdana, arial, sans-serif; font-size: 10px; fill: rgb(42, 63, 95); fill-opacity: 1; white-space: pre; opacity: 1;">0.6</text></g><g class="xtick"><text text-anchor="middle" x="0" y="12.5" transform="translate(128,0)" style="font-family: 'Open Sans', verdana, arial, sans-serif; font-size: 10px; fill: rgb(42, 63, 95); fill-opacity: 1; white-space: pre; opacity: 1;">0.8</text></g><g class="xtick"><text text-anchor="middle" x="0" y="12.5" transform="translate(160,0)" style="font-family: 'Open Sans', verdana, arial, sans-serif; font-size: 10px; fill: rgb(42, 63, 95); fill-opacity: 1; white-space: pre; opacity: 1;">1</text></g></g></g></g><g class="smithlayer"/><g class="ternarylayer"/><g class="geolayer"/><g class="funnelarealayer"/><g class="pielayer"/><g class="iciclelayer"/><g class="treemaplayer"/><g class="sunburstlayer"/><g class="glimages"/><defs id="topdefs-d7ffb5"><g class="clips"/><clipPath id="legendd7ffb5"><rect width="155" height="105" x="0" y="0"/></clipPath></defs><g class="layer-above"><g class="imagelayer"/><g class="shapelayer"/></g><g class="infolayer"><g class="legend" pointer-events="all" transform="translate(532.88,100)"><rect class="bg" shape-rendering="crispEdges" width="155" height="105" x="0" y="0" style="stroke: rgb(68, 68, 68); stroke-opacity: 1; fill: rgb(255, 255, 255); fill-opacity: 1; stroke-width: 0px;"/><g class="scrollbox" transform="" clip-path="url(#legendd7ffb5)"><g class="groups"><g class="traces" transform="translate(0,14.5)" style="opacity: 1;"><text class="legendtext" text-anchor="start" x="40" y="3.9" style="font-family: 'Open Sans', verdana, arial, sans-serif; font-size: 10px; fill: rgb(42, 63, 95); fill-opacity: 1; white-space: pre;">gpt-4o-mini</text><g class="layers" style="opacity: 1;"><g class="legendfill"><path class="js-fill" d="M5,0h30v6h-30z" style="stroke-width: 0; fill: rgb(255, 141, 0); fill-opacity: 0.25;"/></g><g class="legendlines"><path class="js-line" d="M5,0h30" style="fill: none; stroke: rgb(255, 141, 0); stroke-opacity: 0.9; stroke-width: 1px;"/></g><g class="legendsymbols"><g class="legendpoints"><path class="scatterpts" transform="translate(20,0)" d="M4,0A4,4 0 1,1 0,-4A4,4 0 0,1 4,0Z" style="opacity: 1; stroke-width: 0px; fill: rgb(255, 141, 0); fill-opacity: 1;"/></g></g></g><rect class="legendtoggle" x="0" y="-9.5" width="149.875" height="19" style="fill: rgb(0, 0, 0); fill-opacity: 0;"/></g><g class="traces" transform="translate(0,33.5)" style="opacity: 1;"><text class="legendtext" text-anchor="start" x="40" y="3.9" style="font-family: 'Open Sans', verdana, arial, sans-serif; font-size: 10px; fill: rgb(42, 63, 95); fill-opacity: 1; white-space: pre;">gemma2-9b-it</text><g class="layers" style="opacity: 1;"><g class="legendfill"><path class="js-fill" d="M5,0h30v6h-30z" style="stroke-width: 0; fill: rgb(27, 1, 92); fill-opacity: 0.25;"/></g><g class="legendlines"><path class="js-line" d="M5,0h30" style="fill: none; stroke: rgb(27, 1, 92); stroke-opacity: 0.9; stroke-width: 1px;"/></g><g class="legendsymbols"><g class="legendpoints"><path class="scatterpts" transform="translate(20,0)" d="M4,0A4,4 0 1,1 0,-4A4,4 0 0,1 4,0Z" style="opacity: 1; stroke-width: 0px; fill: rgb(27, 1, 92); fill-opacity: 1;"/></g></g></g><rect class="legendtoggle" x="0" y="-9.5" width="149.875" height="19" style="fill: rgb(0, 0, 0); fill-opacity: 0;"/></g><g class="traces" transform="translate(0,52.5)" style="opacity: 1;"><text class="legendtext" text-anchor="start" x="40" y="3.9" style="font-family: 'Open Sans', verdana, arial, sans-serif; font-size: 10px; fill: rgb(42, 63, 95); fill-opacity: 1; white-space: pre;">mixtral-8x7b-32768</text><g class="layers" style="opacity: 1;"><g class="legendfill"><path class="js-fill" d="M5,0h30v6h-30z" style="stroke-width: 0; fill: rgb(255, 0, 167); fill-opacity: 0.25;"/></g><g class="legendlines"><path class="js-line" d="M5,0h30" style="fill: none; stroke: rgb(255, 0, 167); stroke-opacity: 0.9; stroke-width: 1px;"/></g><g class="legendsymbols"><g class="legendpoints"><path class="scatterpts" transform="translate(20,0)" d="M4,0A4,4 0 1,1 0,-4A4,4 0 0,1 4,0Z" style="opacity: 1; stroke-width: 0px; fill: rgb(255, 0, 167); fill-opacity: 1;"/></g></g></g><rect class="legendtoggle" x="0" y="-9.5" width="149.875" height="19" style="fill: rgb(0, 0, 0); fill-opacity: 0;"/></g><g class="traces" transform="translate(0,71.5)" style="opacity: 1;"><text class="legendtext" text-anchor="start" x="40" y="3.9" style="font-family: 'Open Sans', verdana, arial, sans-serif; font-size: 10px; fill: rgb(42, 63, 95); fill-opacity: 1; white-space: pre;">llama-3.2-1b-preview</text><g class="layers" style="opacity: 1;"><g class="legendfill"><path class="js-fill" d="M5,0h30v6h-30z" style="stroke-width: 0; fill: rgb(32, 205, 255); fill-opacity: 0.25;"/></g><g class="legendlines"><path class="js-line" d="M5,0h30" style="fill: none; stroke: rgb(32, 205, 255); stroke-opacity: 0.9; stroke-width: 1px;"/></g><g class="legendsymbols"><g class="legendpoints"><path class="scatterpts" transform="translate(20,0)" d="M4,0A4,4 0 1,1 0,-4A4,4 0 0,1 4,0Z" style="opacity: 1; stroke-width: 0px; fill: rgb(32, 205, 255); fill-opacity: 1;"/></g></g></g><rect class="legendtoggle" x="0" y="-9.5" width="149.875" height="19" style="fill: rgb(0, 0, 0); fill-opacity: 0;"/></g><g class="traces" transform="translate(0,90.5)" style="opacity: 1;"><text class="legendtext" text-anchor="start" x="40" y="3.9" style="font-family: 'Open Sans', verdana, arial, sans-serif; font-size: 10px; fill: rgb(42, 63, 95); fill-opacity: 1; white-space: pre;">llama-3.1-8b-instant</text><g class="layers" style="opacity: 1;"><g class="legendfill"><path class="js-fill" d="M5,0h30v6h-30z" style="stroke-width: 0; fill: rgb(33, 255, 37); fill-opacity: 0.25;"/></g><g class="legendlines"><path class="js-line" d="M5,0h30" style="fill: none; stroke: rgb(33, 255, 37); stroke-opacity: 0.9; stroke-width: 1px;"/></g><g class="legendsymbols"><g class="legendpoints"><path class="scatterpts" transform="translate(20,0)" d="M4,0A4,4 0 1,1 0,-4A4,4 0 0,1 4,0Z" style="opacity: 1; stroke-width: 0px; fill: rgb(33, 255, 37); fill-opacity: 1;"/></g></g></g><rect class="legendtoggle" x="0" y="-9.5" width="149.875" height="19" style="fill: rgb(0, 0, 0); fill-opacity: 0;"/></g></g></g><rect class="scrollbar" rx="20" ry="3" width="0" height="0" x="0" y="0" style="fill: rgb(128, 139, 164); fill-opacity: 1;"/></g><g class="g-gtitle"><text class="gtitle" x="35" y="50" text-anchor="start" dy="0em" style="opacity: 1; font-family: 'Open Sans', verdana, arial, sans-serif; font-size: 20px; fill: rgb(42, 63, 95); fill-opacity: 1; white-space: pre;">RAGAS</text></g><g class="g-polartitle"/></g></svg>